<?xml version="1.0" encoding="UTF-8" standalone="no"?>
<svg
   class="img-fluid"
   id="outputsvg"
   style="transform: matrix(1, 0, 0, 1, 0, 0); transform-origin: 50% 50%; cursor: move; transition: transform 200ms ease-in-out 0s; max-height: 418.96px;"
   width="1670"
   height="2223"
   viewBox="0 0 16700 22230"
   version="1.1"
   sodipodi:docname="aviona-epochi_logo_blue-poster.svg"
   inkscape:version="1.1.2 (0a00cf5339, 2022-02-04)"
   inkscape:export-filename="/home/aakash/Downloads/aviona-epochi_logo_blue-poster_low-res.png"
   inkscape:export-xdpi="700"
   inkscape:export-ydpi="700"
   xmlns:inkscape="http://www.inkscape.org/namespaces/inkscape"
   xmlns:sodipodi="http://sodipodi.sourceforge.net/DTD/sodipodi-0.dtd"
   xmlns="http://www.w3.org/2000/svg"
   xmlns:svg="http://www.w3.org/2000/svg">
  <sodipodi:namedview
     id="namedview83"
     pagecolor="#ffffff"
     bordercolor="#666666"
     borderopacity="1.0"
     inkscape:pageshadow="2"
     inkscape:pageopacity="0.0"
     inkscape:pagecheckerboard="0"
     showgrid="false"
     inkscape:zoom="0.23904787"
     inkscape:cx="656.77222"
     inkscape:cy="1252.8871"
     inkscape:window-width="1920"
     inkscape:window-height="1016"
     inkscape:window-x="0"
     inkscape:window-y="27"
     inkscape:window-maximized="1"
     inkscape:current-layer="outputsvg" />
  <defs
     id="defs85" />
  <rect
     style="fill:#000080;fill-rule:evenodd;stroke-width:10"
     id="rect107"
     width="16627.141"
     height="22109.979"
     x="74.006264"
     y="94.114464" />
  <g
     id="l2YWPDOBhYWHxx5fH7iPAbf"
     fill="#000000"
     transform="matrix(0.48039551,0,0,0.48039551,4502.6193,5991.5886)"
     style="fill:#ffffff;fill-opacity:1">
    <g
       id="g79"
       style="fill:#ffffff;fill-opacity:1">
      <path
         id="pVoqGFcqJ"
         d="m 6017,21622 c -15,-17 -17,-62 -17,-445 0,-374 2,-427 16,-441 18,-19 38,-20 65,-6 18,10 19,25 19,404 v 394 l 25,16 c 30,20 33,56 7,79 -26,23 -94,22 -115,-1 z"
         style="fill:#ffffff;fill-opacity:1" />
      <path
         id="p6Xx3Hep1"
         d="m 6498,21629 c -22,-13 -24,-62 -2,-83 14,-14 69,-16 457,-16 384,0 445,2 465,16 27,18 29,55 4,77 -17,15 -63,17 -463,17 -283,0 -450,-4 -461,-11 z"
         style="fill:#ffffff;fill-opacity:1" />
      <path
         id="puOjxxAkN"
         d="m 7788,21629 c -22,-13 -24,-62 -2,-83 14,-14 69,-16 457,-16 384,0 445,2 465,16 27,18 29,55 4,77 -17,15 -63,17 -463,17 -283,0 -450,-4 -461,-11 z"
         style="fill:#ffffff;fill-opacity:1" />
      <path
         id="pkFqzfSz6"
         d="m 9076,21627 c -24,-17 -24,-67 0,-84 14,-10 108,-13 459,-13 383,0 443,2 463,16 27,18 29,55 4,77 -17,15 -64,17 -463,17 -354,0 -449,-3 -463,-13 z"
         style="fill:#ffffff;fill-opacity:1" />
      <path
         id="prBVdKaaS"
         d="m 10366,21627 c -11,-8 -18,-26 -18,-42 0,-54 8,-55 344,-55 h 308 v -389 c 0,-341 2,-392 16,-405 18,-19 38,-20 65,-6 18,10 19,25 19,405 v 395 h 83 c 92,0 127,15 127,54 0,13 -8,30 -18,39 -17,15 -64,17 -463,17 -354,0 -449,-3 -463,-13 z"
         style="fill:#ffffff;fill-opacity:1" />
      <path
         id="p7dKzWXKe"
         d="m 11656,21627 c -11,-8 -18,-26 -18,-42 0,-55 -2,-55 477,-55 383,0 443,2 463,16 27,18 29,55 4,77 -17,15 -64,17 -463,17 -354,0 -449,-3 -463,-13 z"
         style="fill:#ffffff;fill-opacity:1" />
      <path
         id="p11csIDbA3"
         d="m 12939,21619 c -22,-22 -19,-55 9,-76 12,-10 119,-13 457,-13 383,0 443,2 463,16 27,18 29,55 4,77 -17,15 -64,17 -465,17 -437,0 -447,0 -468,-21 z"
         style="fill:#ffffff;fill-opacity:1" />
      <path
         id="pNaDJqNMy"
         d="m 14230,21620 c -11,-11 -20,-27 -20,-35 0,-8 9,-24 20,-35 19,-19 33,-20 463,-20 384,0 445,2 465,16 27,18 29,55 4,77 -17,15 -64,17 -465,17 -434,0 -448,-1 -467,-20 z"
         style="fill:#ffffff;fill-opacity:1" />
      <path
         id="pPnszuARi"
         d="m 15520,21620 c -11,-11 -20,-27 -20,-35 0,-8 9,-24 20,-35 19,-19 33,-20 250,-20 h 230 v -168 c 0,-180 3,-192 50,-192 48,0 50,10 50,231 0,175 -2,210 -16,223 -13,14 -53,16 -280,16 -251,0 -265,-1 -284,-20 z"
         style="fill:#ffffff;fill-opacity:1" />
      <path
         id="p2mj4Kw0R"
         d="m 4714,20950 c -236,-34 -434,-205 -507,-435 l -22,-70 V 12830 5215 l 27,-73 c 37,-102 82,-173 157,-248 72,-71 180,-133 278,-158 56,-15 527,-16 5180,-14 l 5118,3 77,31 c 181,74 298,198 371,394 20,51 21,80 25,422 l 3,368 -4743,2 -4743,3 -82,28 c -101,34 -215,108 -283,185 -58,64 -122,188 -145,277 -13,52 -15,875 -15,7292 v 7233 l -322,-1 c -178,-1 -346,-5 -374,-9 z"
         style="fill:#ffffff;fill-opacity:1" />
      <path
         id="pC0HqwcdN"
         d="m 6700,20325 v -615 h 1240 1240 v -2490 -2490 h 615 615 v 3105 3105 H 8555 6700 Z"
         style="fill:#ffffff;fill-opacity:1" />
      <path
         id="pp2yY0ERo"
         d="m 11700,20325 v -615 l 970,2 969,3 -16,-25 c -9,-14 -445,-668 -970,-1455 l -953,-1430 v -1037 -1038 h 55 55 l 1185,1777 1185,1778 v -1778 -1777 h 615 615 l -2,2888 -3,2887 -24,55 c -67,153 -171,265 -311,333 l -85,42 -1642,3 -1643,2 z"
         style="fill:#ffffff;fill-opacity:1" />
      <path
         id="p1EtTlupp4"
         d="m 16012,20828 c -17,-17 -17,-919 0,-936 7,-7 24,-12 38,-12 14,0 31,5 38,12 17,17 17,919 0,936 -7,7 -24,12 -38,12 -14,0 -31,-5 -38,-12 z"
         style="fill:#ffffff;fill-opacity:1" />
      <path
         id="pJ1IfgLK5"
         d="m 6022,20384 -22,-15 v -454 c 0,-399 2,-455 16,-469 18,-19 38,-20 65,-6 18,10 19,26 19,470 v 459 l -22,15 c -12,9 -25,16 -28,16 -3,0 -16,-7 -28,-16 z"
         style="fill:#ffffff;fill-opacity:1" />
      <path
         id="ph4jgJyzp"
         d="m 11022,20384 -22,-15 v -454 c 0,-399 2,-455 16,-469 18,-19 38,-20 65,-6 18,10 19,26 19,470 v 459 l -22,15 c -12,9 -25,16 -28,16 -3,0 -16,-7 -28,-16 z"
         style="fill:#ffffff;fill-opacity:1" />
      <path
         id="p19KGxhddo"
         d="m 16012,19538 c -17,-17 -17,-919 0,-936 7,-7 24,-12 38,-12 14,0 31,5 38,12 17,17 17,919 0,936 -7,7 -24,12 -38,12 -14,0 -31,-5 -38,-12 z"
         style="fill:#ffffff;fill-opacity:1" />
      <path
         id="pZzQ2XvJM"
         d="m 2010,19236 c -216,-33 -440,-95 -586,-161 -210,-96 -357,-242 -464,-460 -64,-131 -80,-195 -87,-340 -11,-242 52,-416 184,-507 l 46,-31 -97,-49 -96,-50 v -234 c 0,-129 3,-234 6,-234 4,0 230,116 503,257 l 496,258 h 215 c 184,0 222,-3 262,-18 73,-28 88,-54 88,-149 0,-78 1,-80 23,-75 12,3 100,20 195,37 l 172,33 v 91 c 0,122 -16,245 -41,311 -21,57 -89,141 -132,164 l -26,14 72,79 c 99,110 123,148 142,231 25,110 31,364 11,451 -44,185 -168,306 -378,367 -93,27 -375,35 -508,15 z m 268,-460 c 152,-41 235,-153 202,-274 -6,-24 -25,-56 -44,-75 -19,-19 -149,-91 -314,-175 l -282,-143 -202,3 c -187,3 -206,5 -244,25 -105,56 -141,174 -89,288 10,22 52,73 93,113 59,58 94,82 175,122 213,104 545,158 705,116 z"
         style="fill:#ffffff;fill-opacity:1" />
      <path
         id="ptdiC1oF3"
         d="m 6022,19094 -22,-15 v -453 c 0,-442 0,-453 20,-471 16,-15 26,-17 48,-9 l 27,9 3,460 c 2,459 2,460 -19,478 -26,21 -29,21 -57,1 z"
         style="fill:#ffffff;fill-opacity:1" />
      <path
         id="p6g2yLuBo"
         d="m 11022,19094 -22,-15 v -454 c 0,-399 2,-455 16,-469 18,-19 38,-20 65,-6 18,10 19,26 19,470 v 459 l -22,15 c -12,9 -25,16 -28,16 -3,0 -16,-7 -28,-16 z"
         style="fill:#ffffff;fill-opacity:1" />
      <path
         id="pNmlCPW0j"
         d="m 16012,18248 c -17,-17 -17,-919 0,-936 7,-7 24,-12 38,-12 14,0 31,5 38,12 17,17 17,919 0,936 -7,7 -24,12 -38,12 -14,0 -31,-5 -38,-12 z"
         style="fill:#ffffff;fill-opacity:1" />
      <path
         id="p1G2vxQsqf"
         d="m 6022,17804 -22,-15 v -453 c 0,-442 0,-453 20,-471 16,-15 26,-17 48,-9 l 27,9 3,460 c 2,459 2,460 -19,478 -26,21 -29,21 -57,1 z"
         style="fill:#ffffff;fill-opacity:1" />
      <path
         id="p13s3NnDnX"
         d="m 11022,17804 -22,-15 v -453 c 0,-442 0,-453 20,-471 16,-15 26,-17 48,-9 l 27,9 3,460 c 2,459 2,460 -19,478 -26,21 -29,21 -57,1 z"
         style="fill:#ffffff;fill-opacity:1" />
      <path
         id="polQvnTfr"
         d="m 16011,16956 c -8,-9 -10,-142 -9,-472 l 3,-459 28,-9 c 19,-7 34,-7 45,0 16,10 17,51 20,469 1,330 -1,462 -9,471 -6,8 -24,14 -39,14 -15,0 -33,-6 -39,-14 z"
         style="fill:#ffffff;fill-opacity:1" />
      <path
         id="p3pAQ2vOM"
         d="m 1098,16592 -188,-36 v -418 -418 l 23,5 c 12,3 321,62 687,131 694,132 730,136 786,99 45,-29 67,-91 72,-202 3,-57 5,-103 6,-103 1,0 84,16 185,35 100,19 188,35 194,35 7,0 8,51 3,165 -14,348 -66,492 -201,560 -59,30 -62,30 -220,30 -160,0 -160,-1 -642,-93 -264,-50 -486,-92 -492,-92 -8,0 -11,53 -11,170 0,94 -3,169 -7,169 -5,-1 -92,-17 -195,-37 z"
         style="fill:#ffffff;fill-opacity:1" />
      <path
         id="pj0ZAei5l"
         d="m 6022,16514 -22,-15 v -453 c 0,-442 0,-453 20,-471 16,-15 26,-17 48,-9 l 27,9 3,462 c 2,410 0,463 -14,477 -19,20 -34,20 -62,0 z"
         style="fill:#ffffff;fill-opacity:1" />
      <path
         id="p1C1WFjhaS"
         d="m 11022,16514 -22,-15 v -453 c 0,-442 0,-453 20,-471 16,-15 26,-17 48,-9 l 27,9 3,459 c 2,417 1,461 -14,478 -21,22 -33,23 -62,2 z"
         style="fill:#ffffff;fill-opacity:1" />
      <path
         id="plSMBHz7h"
         d="m 16011,15666 c -8,-9 -10,-142 -9,-472 l 3,-459 28,-9 c 19,-7 34,-7 45,0 16,10 17,51 20,469 1,330 -1,462 -9,471 -6,8 -24,14 -39,14 -15,0 -33,-6 -39,-14 z"
         style="fill:#ffffff;fill-opacity:1" />
      <path
         id="pIkkVmyvj"
         d="m 6022,15224 -22,-15 v -453 c 0,-442 0,-453 20,-471 16,-15 26,-17 48,-9 l 27,9 3,462 c 2,410 0,463 -14,477 -19,20 -34,20 -62,0 z"
         style="fill:#ffffff;fill-opacity:1" />
      <path
         id="pV8ayLWZo"
         d="m 11022,15224 -22,-15 v -453 c 0,-442 0,-453 20,-471 16,-15 26,-17 48,-9 l 27,9 3,462 c 2,410 0,463 -14,477 -19,20 -34,20 -62,0 z"
         style="fill:#ffffff;fill-opacity:1" />
      <path
         id="pKZ2NVIlA"
         d="m 2163,15014 c -417,-50 -905,-206 -1196,-381 l -57,-34 v -220 -219 l 39,20 c 159,81 547,221 756,274 226,56 538,106 668,106 80,0 90,-2 112,-25 64,-64 -2,-124 -215,-193 -102,-34 -316,-88 -467,-118 l -93,-18 v -211 -211 l 133,22 c 327,56 583,68 642,30 23,-15 26,-23 21,-49 -16,-81 -118,-123 -473,-197 -341,-70 -388,-75 -776,-75 H 910 v -216 -216 l 58,-11 c 452,-87 1213,18 1590,219 236,126 356,310 356,549 0,108 -21,170 -77,228 -42,44 -73,59 -159,81 l -72,17 59,33 c 85,48 170,133 205,205 102,210 29,481 -154,571 -110,54 -314,68 -553,39 z"
         style="fill:#ffffff;fill-opacity:1" />
      <path
         id="pWx7x54E6"
         d="m 16012,14378 c -9,-9 -12,-126 -12,-464 0,-398 2,-454 16,-468 18,-19 55,-21 72,-4 17,17 17,919 0,936 -7,7 -24,12 -38,12 -14,0 -31,-5 -38,-12 z"
         style="fill:#ffffff;fill-opacity:1" />
      <path
         id="p1FJgq0POj"
         d="m 6017,14122 c -23,-26 -21,-58 5,-76 20,-14 81,-16 465,-16 388,0 443,2 457,16 23,22 20,71 -3,84 -13,6 -177,10 -464,10 -417,0 -445,-1 -460,-18 z"
         style="fill:#ffffff;fill-opacity:1" />
      <path
         id="pwHtVuJa4"
         d="m 7307,14122 c -23,-26 -21,-58 5,-76 20,-14 81,-16 464,-16 414,0 442,1 457,18 23,25 22,69 -2,82 -13,6 -177,10 -464,10 -417,0 -445,-1 -460,-18 z"
         style="fill:#ffffff;fill-opacity:1" />
      <path
         id="pjFcYgmRx"
         d="m 8597,14122 c -23,-26 -21,-58 5,-76 20,-14 81,-16 464,-16 414,0 442,1 457,18 21,23 22,56 1,76 -14,14 -69,16 -463,16 -421,0 -449,-1 -464,-18 z"
         style="fill:#ffffff;fill-opacity:1" />
      <path
         id="px6LyhORp"
         d="m 9886,14124 c -23,-22 -20,-60 6,-78 20,-14 81,-16 464,-16 414,0 442,1 457,18 21,23 22,56 1,76 -14,14 -70,16 -464,16 -394,0 -450,-2 -464,-16 z"
         style="fill:#ffffff;fill-opacity:1" />
      <path
         id="pIb2xQwdC"
         d="m 11176,14124 c -23,-22 -20,-60 6,-78 20,-14 80,-16 458,-16 473,0 480,1 480,55 0,56 8,55 -480,55 -394,0 -450,-2 -464,-16 z"
         style="fill:#ffffff;fill-opacity:1" />
      <path
         id="p8rifeIKN"
         d="m 12466,14124 c -21,-21 -20,-57 2,-77 17,-15 63,-17 458,-17 478,0 484,1 484,55 0,56 8,55 -480,55 -394,0 -450,-2 -464,-16 z"
         style="fill:#ffffff;fill-opacity:1" />
      <path
         id="p1DauWzftN"
         d="m 13756,14124 c -21,-21 -20,-57 2,-77 17,-15 63,-17 458,-17 478,0 484,1 484,55 0,56 8,55 -480,55 -394,0 -450,-2 -464,-16 z"
         style="fill:#ffffff;fill-opacity:1" />
      <path
         id="pkhRr8aqp"
         d="m 15048,14129 c -24,-13 -23,-61 0,-82 17,-15 63,-17 458,-17 382,0 442,2 462,16 27,18 29,55 4,77 -17,15 -63,17 -463,17 -283,0 -450,-4 -461,-11 z"
         style="fill:#ffffff;fill-opacity:1" />
      <path
         id="psu07L7J9"
         d="M 323,13843 0,13577 v -266 -266 l 29,30 c 16,17 162,183 325,370 l 296,340 v 162 c 0,90 -1,163 -2,163 -2,0 -148,-120 -325,-267 z"
         style="fill:#ffffff;fill-opacity:1" />
      <path
         id="pJoILGrBn"
         d="m 6022,13934 -22,-15 v -453 c 0,-442 0,-453 20,-471 16,-15 26,-17 48,-9 l 27,9 3,462 c 2,410 0,463 -14,477 -19,20 -34,20 -62,0 z"
         style="fill:#ffffff;fill-opacity:1" />
      <path
         id="p4PAUMuVV"
         d="m 11022,13934 -22,-15 v -453 c 0,-442 0,-453 20,-471 16,-15 26,-17 48,-9 l 27,9 3,462 c 2,410 0,463 -14,477 -19,20 -34,20 -62,0 z"
         style="fill:#ffffff;fill-opacity:1" />
      <path
         id="pHQqy4MAZ"
         d="m 6700,12830 v -610 l 970,-2 970,-3 -970,-1455 -970,-1455 V 8268 7230 h 55 55 l 1185,1777 1185,1778 V 9007 7230 h 615 615 v 3105 3105 H 8555 6700 Z"
         style="fill:#ffffff;fill-opacity:1" />
      <path
         id="p7MNK1hEW"
         d="m 11700,12830 v -610 l 1238,-2 1237,-3 3,-2492 2,-2493 h 615 615 v 3105 3105 h -1855 -1855 z"
         style="fill:#ffffff;fill-opacity:1" />
      <path
         id="p1ABLdaIXq"
         d="m 16012,13088 c -9,-9 -12,-126 -12,-464 0,-398 2,-454 16,-468 18,-19 38,-20 65,-6 18,10 19,26 19,468 0,343 -3,461 -12,470 -7,7 -24,12 -38,12 -14,0 -31,-5 -38,-12 z"
         style="fill:#ffffff;fill-opacity:1" />
      <path
         id="pYkzM18KY"
         d="m 910,12465 v -254 l 33,-5 c 17,-3 320,-26 672,-51 352,-25 665,-48 695,-53 l 55,-7 -175,-176 c -240,-242 -372,-337 -558,-399 -75,-25 -106,-30 -183,-30 -140,1 -336,48 -473,114 l -66,32 v -258 -259 l 65,-29 c 140,-63 357,-110 506,-110 206,0 437,90 654,253 89,67 538,511 658,651 l 77,88 v 299 298 l -32,5 c -27,5 -1897,147 -1920,146 -5,0 -8,-115 -8,-255 z"
         style="fill:#ffffff;fill-opacity:1" />
      <path
         id="peMpREvon"
         d="m 6017,12642 c -15,-17 -17,-64 -17,-469 0,-439 0,-450 20,-468 16,-15 26,-17 48,-9 l 27,9 3,462 c 2,410 0,463 -14,477 -21,21 -47,20 -67,-2 z"
         style="fill:#ffffff;fill-opacity:1" />
      <path
         id="pQ8Vq8Ae4"
         d="m 11017,12642 c -15,-17 -17,-64 -17,-469 0,-423 1,-451 18,-466 23,-21 46,-22 66,-1 14,14 16,70 16,469 0,399 -2,455 -16,469 -21,21 -47,20 -67,-2 z"
         style="fill:#ffffff;fill-opacity:1" />
      <path
         id="p3Sfl33D1"
         d="m 16030,11807 -25,-13 -3,-444 c -1,-245 0,-455 3,-467 6,-27 45,-39 74,-23 21,11 21,12 19,472 -3,449 -4,461 -23,474 -16,11 -25,11 -45,1 z"
         style="fill:#ffffff;fill-opacity:1" />
      <path
         id="pbqQFAS8O"
         d="m 6017,11352 c -15,-17 -17,-64 -17,-469 0,-439 0,-450 20,-468 16,-15 26,-17 48,-9 l 27,9 3,465 c 2,428 1,466 -15,478 -24,17 -47,15 -66,-6 z"
         style="fill:#ffffff;fill-opacity:1" />
      <path
         id="pU5GYE86Q"
         d="m 11017,11352 c -15,-17 -17,-64 -17,-469 0,-423 1,-451 18,-466 23,-21 46,-22 66,-1 14,14 16,70 16,469 0,399 -2,455 -16,469 -21,21 -47,20 -67,-2 z"
         style="fill:#ffffff;fill-opacity:1" />
      <path
         id="pUydLHe3G"
         d="m 16022,10514 -22,-15 v -454 c 0,-399 2,-455 16,-469 18,-19 38,-20 65,-6 18,10 19,26 19,470 v 459 l -22,15 c -12,9 -25,16 -28,16 -3,0 -16,-7 -28,-16 z"
         style="fill:#ffffff;fill-opacity:1" />
      <path
         id="pMnyFCUqn"
         d="m 1100,10271 -185,-36 -3,-418 -2,-419 27,6 c 155,34 1352,256 1376,256 18,0 51,-9 74,-19 63,-29 85,-80 91,-208 3,-57 7,-103 9,-103 3,0 90,16 194,36 l 189,37 v 77 c 0,129 -19,324 -40,405 -39,152 -96,221 -213,257 -60,18 -86,20 -200,15 -111,-4 -209,-19 -610,-96 -262,-50 -484,-91 -492,-91 -13,0 -15,26 -15,170 0,94 -3,169 -7,169 -5,-1 -91,-18 -193,-38 z"
         style="fill:#ffffff;fill-opacity:1" />
      <path
         id="pGIg9vfjL"
         d="m 6017,10062 c -15,-17 -17,-64 -17,-470 v -451 l 22,-15 c 28,-20 43,-20 62,0 14,14 16,70 16,474 0,444 -1,460 -19,470 -28,15 -46,12 -64,-8 z"
         style="fill:#ffffff;fill-opacity:1" />
      <path
         id="pJT4PSWdN"
         d="m 11017,10062 c -15,-17 -17,-64 -17,-469 0,-423 1,-451 18,-466 23,-21 46,-22 66,-1 14,14 16,70 16,474 0,444 -1,460 -19,470 -28,15 -46,12 -64,-8 z"
         style="fill:#ffffff;fill-opacity:1" />
      <path
         id="pe5vAqEqx"
         d="m 16022,9224 -22,-15 v -454 c 0,-399 2,-455 16,-469 18,-19 38,-20 65,-6 18,10 19,26 19,470 v 459 l -22,15 c -12,9 -25,16 -28,16 -3,0 -16,-7 -28,-16 z"
         style="fill:#ffffff;fill-opacity:1" />
      <path
         id="p11Gdx9hEA"
         d="m 6017,8772 c -15,-17 -17,-64 -17,-470 v -451 l 22,-15 c 28,-20 43,-20 62,0 14,14 16,70 16,474 0,444 -1,460 -19,470 -28,15 -46,12 -64,-8 z"
         style="fill:#ffffff;fill-opacity:1" />
      <path
         id="phf9BOVpr"
         d="m 11017,8772 c -15,-17 -17,-64 -17,-470 v -451 l 22,-15 c 28,-20 43,-20 62,0 14,14 16,70 16,474 0,444 -1,460 -19,470 -28,15 -46,12 -64,-8 z"
         style="fill:#ffffff;fill-opacity:1" />
      <path
         id="piih9Q9J6"
         d="m 2075,8709 c -134,-16 -365,-66 -481,-104 -139,-45 -291,-121 -372,-186 -127,-102 -255,-288 -313,-455 -33,-97 -34,-102 -34,-264 0,-155 2,-170 28,-244 38,-107 95,-185 175,-238 23,-15 22,-16 -70,-65 l -93,-50 -3,-237 -2,-237 52,27 c 29,15 257,132 506,260 l 453,234 h 202 c 223,0 289,-11 333,-55 21,-22 24,-33 24,-108 v -84 l 193,37 192,37 -1,146 c -2,116 -6,161 -23,215 -26,85 -72,156 -125,190 -23,14 -43,27 -45,29 -2,2 27,36 65,76 92,95 118,132 137,192 35,108 48,360 26,481 -35,195 -190,338 -419,389 -91,20 -296,27 -405,14 z m 148,-459 c 93,-14 159,-44 206,-95 77,-84 77,-200 -1,-272 -12,-11 -152,-87 -309,-167 l -286,-146 h -164 c -288,0 -369,43 -386,205 -8,77 26,143 120,232 109,104 253,170 467,217 146,32 256,40 353,26 z"
         style="fill:#ffffff;fill-opacity:1" />
      <path
         id="pUqo7XWx3"
         d="m 16022,7934 -22,-15 v -454 c 0,-399 2,-455 16,-469 18,-19 38,-20 65,-6 18,10 19,26 19,470 v 459 l -22,15 c -12,9 -25,16 -28,16 -3,0 -16,-7 -28,-16 z"
         style="fill:#ffffff;fill-opacity:1" />
      <path
         id="pLTvs2h1M"
         d="m 6017,7482 c -15,-17 -17,-64 -17,-470 v -451 l 22,-15 c 28,-20 43,-20 62,0 14,14 16,70 16,474 0,444 -1,460 -19,470 -28,15 -46,12 -64,-8 z"
         style="fill:#ffffff;fill-opacity:1" />
      <path
         id="p1o24ib2x"
         d="m 11016,7482 c -15,-17 -16,-61 -14,-473 l 3,-453 27,-15 c 24,-14 28,-14 47,3 21,19 21,27 21,477 0,443 -1,459 -19,469 -28,15 -46,12 -65,-8 z"
         style="fill:#ffffff;fill-opacity:1" />
      <path
         id="pD8pxhve9"
         d="m 16030,6650 c -9,-6 -177,-10 -423,-10 -262,0 -415,-4 -428,-10 -23,-13 -26,-62 -3,-84 14,-14 69,-16 453,-16 412,0 439,1 454,18 25,27 22,78 -5,96 -26,19 -28,19 -48,6 z"
         style="fill:#ffffff;fill-opacity:1" />
      <path
         id="pfHTwFKtx"
         d="m 6146,6624 c -23,-22 -20,-60 6,-78 20,-14 80,-16 458,-16 473,0 480,1 480,55 0,56 8,55 -480,55 -394,0 -450,-2 -464,-16 z"
         style="fill:#ffffff;fill-opacity:1" />
      <path
         id="pEQyHgF4H"
         d="m 7436,6624 c -23,-22 -20,-60 6,-78 20,-14 80,-16 458,-16 473,0 480,1 480,55 0,56 8,55 -480,55 -394,0 -450,-2 -464,-16 z"
         style="fill:#ffffff;fill-opacity:1" />
      <path
         id="petWp4lRw"
         d="m 8726,6624 c -23,-22 -20,-60 6,-78 20,-14 80,-16 458,-16 473,0 480,1 480,55 0,56 8,55 -480,55 -394,0 -450,-2 -464,-16 z"
         style="fill:#ffffff;fill-opacity:1" />
      <path
         id="pv0AlGqtm"
         d="m 10016,6624 c -23,-22 -20,-60 6,-78 20,-14 80,-16 458,-16 473,0 480,1 480,55 0,56 8,55 -480,55 -394,0 -450,-2 -464,-16 z"
         style="fill:#ffffff;fill-opacity:1" />
      <path
         id="p19jRmjJM5"
         d="m 11308,6629 c -24,-13 -23,-61 0,-82 17,-15 63,-17 458,-17 382,0 442,2 462,16 27,18 29,55 4,77 -17,15 -63,17 -463,17 -283,0 -450,-4 -461,-11 z"
         style="fill:#ffffff;fill-opacity:1" />
      <path
         id="pDeYo8aDd"
         d="m 12598,6629 c -24,-13 -23,-61 0,-82 17,-15 63,-17 458,-17 382,0 442,2 462,16 27,18 29,55 4,77 -17,15 -63,17 -463,17 -283,0 -450,-4 -461,-11 z"
         style="fill:#ffffff;fill-opacity:1" />
      <path
         id="pSOK1rHbR"
         d="m 13888,6629 c -22,-13 -24,-62 -2,-83 14,-14 69,-16 457,-16 384,0 445,2 465,16 27,18 29,55 4,77 -17,15 -63,17 -463,17 -283,0 -450,-4 -461,-11 z"
         style="fill:#ffffff;fill-opacity:1" />
      <path
         id="pUSRDNqHj"
         d="m 10636,3633 c 9,-16 212,-320 450,-678 l 433,-650 -98,-385 c -54,-212 -105,-401 -114,-421 -18,-45 -71,-106 -108,-125 -17,-8 -57,-14 -105,-14 -74,0 -76,-1 -71,-22 3,-13 20,-103 38,-201 l 33,-179 156,4 c 154,3 155,3 230,39 191,91 266,226 371,662 12,53 25,97 28,96 4,0 125,-180 270,-400 l 264,-399 h 250 249 l -18,27 c -9,16 -212,319 -449,676 l -432,647 98,386 c 55,216 109,410 124,440 16,33 42,65 67,83 39,29 48,31 126,31 h 85 l -6,28 c -3,15 -20,107 -38,205 l -33,177 h -112 c -141,0 -201,-11 -290,-55 -170,-83 -248,-222 -344,-612 -18,-73 -35,-133 -39,-133 -3,0 -125,180 -271,400 l -265,399 -249,1 h -248 z"
         style="fill:#ffffff;fill-opacity:1" />
      <path
         id="pW2hqLqIh"
         d="m 13895,3648 c 5,-14 357,-1881 376,-1991 16,-94 9,-202 -17,-252 -39,-78 -155,-107 -270,-68 -64,22 -160,117 -203,200 -49,99 -72,195 -187,801 l -108,572 h -243 c -188,0 -243,-3 -243,-12 1,-7 83,-445 183,-973 l 183,-960 242,-3 c 226,-2 242,-1 242,15 0,10 -11,74 -25,143 -13,68 -23,126 -21,127 2,2 19,-23 39,-55 47,-77 152,-174 229,-213 128,-65 292,-85 428,-53 251,59 338,290 265,706 -14,79 -105,566 -203,1083 l -179,940 -246,3 c -196,2 -246,0 -242,-10 z"
         style="fill:#ffffff;fill-opacity:1" />
      <path
         id="p10V0nuWY4"
         d="m 1490,3125 c -355,-76 -636,-348 -721,-700 -30,-125 -30,-305 0,-429 81,-334 338,-598 671,-688 73,-20 107,-23 245,-22 144,1 169,3 250,28 418,127 692,508 672,936 -20,412 -280,738 -687,862 -86,26 -334,34 -430,13 z"
         style="fill:#ffffff;fill-opacity:1" />
      <path
         id="pdFfP6FFQ"
         d="m 7772,2965 c -188,-34 -266,-146 -241,-346 8,-66 216,-1183 234,-1256 l 5,-23 h -239 -239 l -39,208 c -22,114 -89,467 -149,784 l -109,578 h -237 c -184,0 -238,-3 -238,-12 0,-7 65,-357 145,-777 80,-420 145,-767 145,-772 0,-5 -61,-9 -135,-9 -101,0 -135,-3 -135,-12 0,-13 54,-300 65,-345 l 5,-23 h 993 994 l -36,187 -36,188 -140,5 -139,5 -92,485 c -109,571 -121,648 -104,709 10,37 17,45 56,63 37,16 62,19 140,16 60,-2 93,1 90,7 -2,6 -16,78 -32,161 l -28,152 -51,11 c -145,32 -328,39 -453,16 z"
         style="fill:#ffffff;fill-opacity:1" />
      <path
         id="p1EajI1a0v"
         d="m 9345,2945 c -160,-30 -267,-85 -376,-194 -88,-89 -145,-190 -181,-321 -21,-76 -23,-106 -23,-285 1,-277 36,-454 130,-652 143,-303 383,-505 670,-564 115,-24 315,-25 423,-3 299,61 498,272 553,584 17,99 15,338 -5,471 -68,449 -319,799 -663,922 -153,55 -367,72 -528,42 z m 335,-410 c 163,-56 297,-262 356,-545 25,-119 26,-373 2,-451 -51,-163 -182,-247 -342,-218 -84,15 -147,52 -216,126 -100,106 -171,263 -203,448 -66,378 10,602 220,655 47,11 124,5 183,-15 z"
         style="fill:#ffffff;fill-opacity:1" />
      <path
         id="pgKGmsT8S"
         d="m 5128,2940 c -190,-22 -350,-81 -442,-161 -90,-79 -127,-164 -127,-294 -1,-310 190,-525 540,-606 l 95,-22 -87,-23 c -103,-28 -154,-52 -208,-101 -58,-52 -77,-83 -95,-152 -21,-82 -7,-178 42,-280 126,-267 520,-412 1016,-373 180,14 408,64 408,89 0,17 -62,346 -66,351 -1,2 -51,-13 -111,-33 -135,-45 -263,-65 -418,-65 -255,0 -403,76 -430,220 -10,53 25,97 110,140 l 69,35 208,3 c 115,2 208,6 208,9 0,3 -16,90 -36,194 l -37,189 h -176 c -200,0 -283,13 -377,60 -117,57 -183,145 -192,256 -5,61 -4,62 39,109 88,95 180,120 424,111 201,-6 341,-30 479,-80 55,-19 101,-35 102,-33 1,1 -14,85 -34,187 l -37,185 -127,32 c -70,18 -164,37 -210,43 -113,15 -435,21 -530,10 z"
         style="fill:#ffffff;fill-opacity:1" />
      <path
         id="pZTU4pcKR"
         d="m 13817,677 c 10,-12 130,-159 268,-325 l 249,-302 h 265 c 263,0 265,0 246,19 -11,11 -177,157 -370,325 l -350,306 h -163 -163 z"
         style="fill:#ffffff;fill-opacity:1" />
    </g>
  </g>
</svg>
